<svg version="1.1" xmlns="http://www.w3.org/2000/svg" width="1254" height="1174">

<path d="M0 0 C1.25680732 -0.00339833 1.25680732 -0.00339833 2.53900468 -0.00686532 C5.3391988 -0.013182 8.13934423 -0.01237745 10.93954468 -0.0115509 C12.95049095 -0.01454392 14.96143665 -0.01794678 16.97238159 -0.02172852 C22.43133868 -0.03055996 27.8902801 -0.03290632 33.34924364 -0.0335443 C36.7628842 -0.03425549 40.17652079 -0.03639116 43.59016037 -0.03904152 C55.50838219 -0.04829335 67.42659283 -0.05237676 79.34481812 -0.05158997 C90.43849202 -0.05098978 101.53211721 -0.06153037 112.62577879 -0.07733363 C122.16146721 -0.09043136 131.69713975 -0.0957729 141.23283708 -0.09513456 C146.92288766 -0.09488015 152.61289497 -0.09769944 158.30293655 -0.10831261 C163.65946362 -0.11803072 169.0159064 -0.11804737 174.37243652 -0.11079597 C176.33149718 -0.10975462 178.29056319 -0.11208617 180.24961472 -0.11815643 C193.28336376 -0.15590571 205.6008729 0.26889448 217.97616577 4.82121277 C219.05656128 5.2142157 219.05656128 5.2142157 220.15878296 5.61515808 C246.7793404 15.60523879 266.67832814 35.54041989 278.74960327 61.07121277 C288.01727012 81.55246167 292.04699309 106.95892121 284.92538452 128.72355652 C276.82683512 148.6391442 265.4553171 162.25501537 247.26034546 173.78825378 C234.9629351 181.62082006 223.62256894 190.40800557 213.16268921 200.56535339 C211.48502813 202.18551196 209.78246988 203.77648852 208.07772827 205.36808777 C179.56327693 232.41601403 159.86330141 272.39581904 154.96835327 311.29777527 C154.53866577 314.13371277 154.53866577 314.13371277 153.53866577 316.13371277 C150.45292519 335.6792031 151.94097337 355.99637253 156.53866577 375.13371277 C156.73653687 375.96290222 156.93440796 376.79209167 157.13827515 377.64640808 C159.17860099 385.97608786 161.5145022 393.96065696 165.32772827 401.67668152 C166.26268226 403.57373331 167.11586106 405.51122084 167.93319702 407.46183777 C173.09969621 419.62013608 180.58001956 430.65679855 188.53866577 441.13371277 C189.19866577 442.01929871 189.85866577 442.90488464 190.53866577 443.81730652 C200.09655746 456.082023 211.62048712 467.41334424 223.83944702 477.01261902 C248.4550178 496.35596913 268.9450581 518.10636352 274.53866577 550.13371277 C276.39309809 581.2123126 269.62197305 610.58273096 248.73983765 634.51554871 C247.35163302 636.06656746 245.94864585 637.60248754 244.53866577 639.13371277 C243.73557983 640.01929871 242.9324939 640.90488464 242.10507202 641.81730652 C230.45808852 654.07628259 216.91943345 661.5352953 201.53866577 668.13371277 C200.50612671 668.57715027 199.47358765 669.02058777 198.40975952 669.47746277 C184.85767871 674.80942899 171.32229287 675.57438245 156.96786499 675.50602722 C155.15425407 675.50846148 153.3406445 675.51218691 151.52703857 675.51708984 C146.64697115 675.52641439 141.76710727 675.51714581 136.88705587 675.50375772 C131.75490423 675.49235308 126.62276129 675.49655755 121.49060059 675.49850464 C112.87817095 675.49938463 104.26582047 675.48836793 95.65341187 675.46989441 C85.7246022 675.44871793 75.79590825 675.4452216 65.86708057 675.45145637 C56.27598678 675.45716854 46.68493334 675.45148343 37.09384537 675.44028282 C33.02959566 675.43566271 28.96537084 675.43475168 24.90111923 675.43686867 C20.10914302 675.43876476 15.3172831 675.43054702 10.5253334 675.41480827 C8.77632376 675.4105988 7.02730225 675.40969211 5.27828979 675.41249847 C-7.61275571 675.43003155 -20.03414104 674.7590567 -32.33633423 670.50871277 C-33.47268311 670.11957703 -33.47268311 670.11957703 -34.63198853 669.72257996 C-61.63275475 660.10548168 -82.90164659 640.33206722 -95.33633423 614.63371277 C-102.06694562 600.42840229 -103.04475881 586.8356727 -102.9692688 571.38642883 C-102.97388521 569.31494455 -102.98024308 567.24346355 -102.98817778 565.17198932 C-103.00479265 559.51501964 -102.99666043 553.85832175 -102.9842329 548.2013514 C-102.97515242 542.08669509 -102.98916707 535.97208429 -103.00015259 529.85743713 C-103.01688617 518.58274635 -103.01547162 507.30816559 -103.00450671 496.03347761 C-102.9944246 485.61468972 -102.99182692 475.19593333 -102.99659729 464.77714157 C-102.9970556 463.73846977 -102.9970556 463.73846977 -102.99752317 462.6788147 C-102.99876863 459.86756794 -103.00004224 457.05632119 -103.00136223 454.24507447 C-103.01358546 427.89804243 -103.00252516 401.5510651 -102.98097464 375.20404152 C-102.96199785 351.82591434 -102.96368866 328.44787434 -102.9828186 305.06974792 C-103.00426565 278.77238691 -103.01271422 252.4750742 -103.00036955 226.17770565 C-102.99908679 223.37110894 -102.99783542 220.56451222 -102.99659729 217.7579155 C-102.99628098 217.06691765 -102.99596467 216.37591981 -102.99563878 215.66398263 C-102.99110022 205.25630781 -102.99638887 194.84866804 -103.0065155 184.44099808 C-103.01798124 172.59839752 -103.01464974 160.7558997 -102.99339253 148.91330303 C-102.98291093 142.87573901 -102.97871092 136.83835143 -102.99198914 130.80078888 C-103.00397895 125.26514304 -102.99724235 119.72983587 -102.97607893 114.19422041 C-102.97164063 112.2004394 -102.97381605 110.2066293 -102.98358208 108.21286727 C-103.053776 92.68123 -101.45718708 78.04571669 -94.71133423 63.82121277 C-94.36554321 63.07323425 -94.0197522 62.32525574 -93.66348267 61.55461121 C-81.445399 35.82241867 -60.01473761 16.70469046 -33.68008423 6.22746277 C-22.75335389 2.51449615 -11.5639764 -0.0230811 0 0 Z " fill="#2458FC" transform="translate(365.4613342285156,166.8662872314453)" data-index="1" style="opacity: 1;"></path>
<path d="M0 0 C1.8005149 -0.00407577 3.60102728 -0.00942324 5.40153503 -0.01593018 C10.24660432 -0.02949008 15.09147981 -0.02435243 19.93655205 -0.01479292 C25.03440708 -0.00713709 30.13224678 -0.01425824 35.23010254 -0.01895142 C43.78705794 -0.02439185 52.34393537 -0.01726249 60.90087891 -0.00292969 C70.75924317 0.01339348 80.61742121 0.00810376 90.47578096 -0.0084089 C98.97732515 -0.02207276 107.47881365 -0.02391958 115.98036528 -0.0160929 C121.04161342 -0.01144321 126.10277437 -0.01071634 131.16401672 -0.02070236 C135.92484968 -0.02944147 140.68544521 -0.02322488 145.44625282 -0.00601959 C147.18152283 -0.00209151 148.91681323 -0.00312468 150.65207481 -0.00980759 C164.96445646 -0.05979777 178.1993338 1.42725559 191.55273438 7.01318359 C192.39666748 7.3616333 193.24060059 7.71008301 194.11010742 8.0690918 C223.38030977 20.51135197 244.07636802 43.39046596 256.55273438 72.38818359 C261.90849792 86.54837743 262.84953918 100.48678983 262.82015991 115.45890808 C262.82390169 117.27618784 262.82850531 119.09346599 262.83389056 120.91074163 C262.84607062 125.87892169 262.84586601 130.84703415 262.84350181 135.81522572 C262.84309237 141.18349873 262.85414479 146.55175044 262.86361694 151.92001343 C262.88020028 162.42778054 262.88572527 172.93552521 262.8868417 183.44330432 C262.8877934 191.98787967 262.89190977 200.53244763 262.89824295 209.07702065 C262.91584774 233.32386037 262.92508296 257.57068241 262.923582 281.81752857 C262.92350209 283.12354248 262.92342218 284.42955639 262.92333984 285.77514648 C262.92325808 287.0827623 262.92317632 288.39037812 262.92309208 289.73761866 C262.9222793 310.9259087 262.94141701 332.11412762 262.96961658 353.30239709 C262.99837 375.07933312 263.01215553 396.85623449 263.01042902 418.63318998 C263.009766 430.85087515 263.01522018 443.06848576 263.03678513 455.28615379 C263.05502922 465.68870111 263.0593177 476.09114006 263.04576628 486.49369647 C263.0392531 491.7960845 263.03905974 497.09826482 263.05647278 502.40063286 C263.07228147 507.26469844 263.06926081 512.12839296 263.05190451 516.99244992 C263.04885172 518.74204733 263.05240126 520.49167299 263.06362467 522.24123707 C263.2396683 551.65710054 251.77854107 576.61234023 231.42773438 597.88818359 C220.56862453 608.4638826 208.48392849 615.54372585 194.55273438 621.38818359 C193.39515625 621.89478516 192.23757813 622.40138672 191.04492188 622.92333984 C178.02676699 627.61991196 164.53656006 627.82568071 150.89038086 627.77636719 C148.97149356 627.78044295 147.05260862 627.78579041 145.13372803 627.79229736 C139.97055021 627.80585649 134.80755425 627.80072017 129.64437366 627.79116011 C124.21286745 627.78350498 118.78137566 627.79062513 113.34986877 627.7953186 C104.23395016 627.80075877 95.11810474 627.79362989 86.00219727 627.77929688 C75.49682167 627.76296886 64.99162077 627.76826707 54.48624939 627.78477609 C45.42842736 627.79843483 36.37065761 627.80028939 27.3128286 627.79246008 C21.91960259 627.78780824 16.52645843 627.78708971 11.13323784 627.79706955 C6.06132288 627.80580129 0.98963099 627.79960511 -4.08226013 627.78238678 C-5.9320228 627.77845506 -7.78180458 627.77949831 -9.63155937 627.78617477 C-39.83237807 627.88504544 -64.61998853 617.88575747 -86.44726562 596.82568359 C-101.21541351 582.05281142 -111.50062265 562.04579494 -111.94726562 540.95068359 C-111.89224932 528.87795855 -107.51552407 519.28080757 -99.44726562 510.38818359 C-98.93679688 509.78619141 -98.42632813 509.18419922 -97.90039062 508.56396484 C-91.66922638 501.70042997 -83.24299658 497.55380244 -75.28320312 493.00927734 C-54.56609579 481.12268162 -35.70178791 465.72003096 -21.44726562 446.38818359 C-20.67769531 445.34662109 -19.908125 444.30505859 -19.11523438 443.23193359 C-11.38472987 432.38709182 -5.86839752 420.51274012 -0.44726562 408.38818359 C0.09027344 407.20353516 0.6278125 406.01888672 1.18164062 404.79833984 C5.38494757 394.77101513 7.34523 383.99401574 9.55273438 373.38818359 C9.73529785 372.54690918 9.91786133 371.70563477 10.10595703 370.83886719 C12.26575912 360.62218565 12.73930523 350.64851681 12.73803711 340.21313477 C12.74021185 338.22131226 12.75869269 336.22952934 12.77734375 334.23779297 C12.79710577 320.89842817 11.11743992 308.25018784 7.61523438 295.38818359 C7.36322266 294.41751953 7.11121094 293.44685547 6.8515625 292.44677734 C5.45306802 287.18901035 3.79723216 282.33946054 1.55273438 277.38818359 C0.8381236 275.43213221 0.12980184 273.47377198 -0.57226562 271.51318359 C-8.45259885 251.07576151 -21.08330873 233.73573454 -35.44726562 217.38818359 C-36.094375 216.61861328 -36.74148438 215.84904297 -37.40820312 215.05615234 C-41.39669898 210.33673304 -45.73712936 206.37368351 -50.44726562 202.38818359 C-51.60105886 201.38594358 -52.75326498 200.38187494 -53.90429688 199.37646484 C-59.61806871 194.3896865 -65.33575239 189.43821122 -71.25976562 184.70068359 C-92.75424083 167.14315806 -108.30694755 142.71148678 -112.15820312 114.88427734 C-114.01297598 92.45155161 -110.60937792 73.96464154 -99.44726562 54.38818359 C-98.89167969 53.39302734 -98.33609375 52.39787109 -97.76367188 51.37255859 C-83.40510297 27.26944532 -57.27820957 9.46996634 -30.28354645 2.58078575 C-20.11031126 0.34639334 -10.38923025 -0.0400114 0 0 Z " fill="#2458FC" transform="translate(728.447265625,397.61181640625)" data-index="2" style="opacity: 1;"></path>
<path d="M0 0 C0 3 0 3 -1.56054688 4.90112305 C-2.62885742 5.94586792 -2.62885742 5.94586792 -3.71875 7.01171875 C-4.48574219 7.76904297 -5.25273438 8.52636719 -6.04296875 9.30664062 C-6.85378906 10.09232422 -7.66460938 10.87800781 -8.5 11.6875 C-9.31082031 12.48478516 -10.12164063 13.28207031 -10.95703125 14.10351562 C-12.96482203 16.0758748 -14.9792687 18.04091492 -17 20 C-17.66 19.67 -18.32 19.34 -19 19 C-12.98348207 12.26459665 -7.02537494 5.71692402 0 0 Z " fill="#2E61FD" transform="translate(655,422)" data-index="3"></path>
<path d="M0 0 C0.66 0.33 1.32 0.66 2 1 C0.89718873 2.27200971 -0.20730769 3.54255853 -1.3125 4.8125 C-1.92738281 5.52019531 -2.54226563 6.22789062 -3.17578125 6.95703125 C-6.44911047 10.6228796 -6.44911047 10.6228796 -8 12 C-8.66 12 -9.32 12 -10 12 C-8.52278578 8.54798361 -6.56205999 6.35038064 -3.875 3.75 C-3.15054688 3.04359375 -2.42609375 2.3371875 -1.6796875 1.609375 C-1.12539063 1.07828125 -0.57109375 0.5471875 0 0 Z " fill="#3264FC" transform="translate(636,901)" data-index="4"></path>
<path d="M0 0 C0.33 0 0.66 0 1 0 C1.02714434 2.7084017 1.04690846 5.41652721 1.0625 8.125 C1.07087891 8.88554688 1.07925781 9.64609375 1.08789062 10.4296875 C1.10646509 14.7389644 0.86117265 18.75516474 0 23 C-0.33 23 -0.66 23 -1 23 C-1.19412181 21.52168779 -1.38012131 20.04230684 -1.5625 18.5625 C-1.66691406 17.73878906 -1.77132812 16.91507813 -1.87890625 16.06640625 C-1.91886719 15.38449219 -1.95882812 14.70257812 -2 14 C-1.67 13.67 -1.34 13.34 -1 13 C-0.95350094 11.00054061 -0.96227087 8.9996441 -1 7 C-1.03772913 5.0003559 -1.04649906 2.99945939 -1 1 C-0.67 0.67 -0.34 0.34 0 0 Z " fill="#4373FD" transform="translate(990,919)" data-index="5"></path>
<path d="M0 0 C0.66 0.99 1.32 1.98 2 3 C0.02 5.97 -1.96 8.94 -4 12 C-4.33 11.34 -4.66 10.68 -5 10 C-4.00390625 7.6171875 -4.00390625 7.6171875 -2.5625 4.875 C-1.85287109 3.50988281 -1.85287109 3.50988281 -1.12890625 2.1171875 C-0.75636719 1.41851563 -0.38382813 0.71984375 0 0 Z " fill="#D7E3FE" transform="translate(983,960)" data-index="6"></path>
<path d="M0 0 C0.99 0.33 1.98 0.66 3 1 C1.68 3.31 0.36 5.62 -1 8 C-1.66 8 -2.32 8 -3 8 C-1.125 2.25 -1.125 2.25 0 0 Z " fill="#3B6AFC" transform="translate(722,819)" data-index="7"></path>
</svg>